<?xml version="1.0" encoding="UTF-8" standalone="no"?>
<svg
   xmlns:dc="http://purl.org/dc/elements/1.1/"
   xmlns:cc="http://creativecommons.org/ns#"
   xmlns:rdf="http://www.w3.org/1999/02/22-rdf-syntax-ns#"
   xmlns:svg="http://www.w3.org/2000/svg"
   xmlns="http://www.w3.org/2000/svg"
   version="1.1"
   id="Layer_1"
   x="0px"
   y="0px"
   viewBox="0 0 100 23"
   xml:space="preserve"
   width="100"
   height="23"><title
     id="title4201">CorelDraw logo</title><defs
     id="defs71" /><style
     type="text/css"
     id="style3">
	.st0{fill:#979797;}
	.st1{fill:#61A706;}
	.st2{fill-rule:evenodd;clip-rule:evenodd;fill:#61A706;}
	.st3{fill-rule:evenodd;clip-rule:evenodd;fill:#979797;}
</style><path
     style="clip-rule:evenodd;fill:#333333;fill-rule:nonzero;stroke-width:0.00361762;image-rendering:optimizeQuality;shape-rendering:geometricPrecision;text-rendering:geometricPrecision"
     d="m 89.916865,0.43832917 c -0.363371,0.0152063 -1.17314,0.24736674 -1.936626,0.60579703 -0.763417,0.3584279 -3.460567,1.9915096 -3.513144,6.0266562 0.06818,3.8240056 3.602711,10.3226376 5.989327,12.4086016 0,0 -3.876921,-6.409844 -4.157482,-11.9991163 -0.280561,-5.5893413 3.617925,-7.04193853 3.617925,-7.04193853 z m 2.505088,0 c 0,0 3.897282,1.45259723 3.61672,7.04193853 C 95.758107,13.06954 91.881191,19.479384 91.881191,19.479384 94.267872,17.39342 97.803568,10.894788 97.871723,7.0707824 97.819223,3.0356358 95.120855,1.4025541 94.357374,1.0441262 93.593958,0.68569591 92.785329,0.45354344 92.421953,0.43832917 Z m -1.28988,0.0168588 c -0.237314,0.003638 -0.386857,0.0589196 -0.520287,0.13007141 C 89.178418,1.3502806 88.283155,4.1099353 88.534249,8.4244896 88.708183,11.41293 89.480325,15.147408 90.804485,19.48179 h 0.327588 0.326384 C 92.782147,15.148798 93.55453,11.414863 93.728693,8.4269007 93.980263,4.1106414 93.084759,1.3504496 91.651156,0.58526189 91.517742,0.51410699 91.369313,0.45889399 91.132073,0.45519047 Z m -4.61996,0.96469853 c 0,0 -4.186956,1.6988707 -3.358985,6.6035484 0.827966,4.9046811 5.234858,10.1394191 6.543337,11.2512041 0.46922,0.423805 -5.407542,-6.038267 -5.977284,-11.7136813 -0.272714,-2.142765 0.36268,-4.5178014 2.792932,-6.1410712 z m 9.332657,0 c 2.430242,1.6232698 3.06566,3.9983062 2.792932,6.1410712 C 98.067954,13.236373 92.191353,19.698444 92.660418,19.274639 93.968892,18.162857 98.37458,12.928118 99.202551,8.0234374 100.03053,3.1187596 95.84477,1.419889 95.84477,1.419889 Z M 5.9169348,3.3456732 c -0.7052169,0 -1.367374,0.1308058 -1.9872114,0.3926234 C 3.3098676,3.9999169 2.7693667,4.3804839 2.3086464,4.8812419 1.8480556,5.3820369 1.4835738,5.9938715 1.2162801,6.7166981 0.94899882,7.4393971 0.81522559,8.2570309 0.81522559,9.1675869 c 0,0.9219391 0.13105386,1.7411021 0.39262511,2.4581151 0.2616329,0.71703 0.6177223,1.319536 1.0670718,1.80896 0.4491523,0.489357 0.980311,0.860042 1.5945863,1.110427 0.6141273,0.250422 1.2737192,0.375763 1.978777,0.375763 0.028772,0 0.055744,-0.0044 0.084306,-0.0048 0.030844,4.84e-4 0.060511,0.0048 0.091532,0.0048 0.7165938,0 1.3676879,-0.140213 1.9534869,-0.41912 0.5857126,-0.278871 1.105846,-0.67959 1.5608624,-1.203163 L 8.4810366,12.052048 c -0.031134,0.03338 -0.066971,0.0582 -0.098758,0.09033 l -0.07708,-0.09033 C 7.9867737,12.393479 7.6344557,12.670022 7.2477626,12.880653 6.8834029,13.079034 6.466581,13.179948 6.0012408,13.191379 5.1009884,13.168243 4.3823165,12.811079 3.8490303,12.112266 3.2973807,11.38948 3.0216329,10.390565 3.0216329,9.1157994 c 0,-0.6261023 0.076586,-1.1889717 0.2300303,-1.6897284 C 3.405212,6.9252648 3.6208993,6.5013662 3.8996192,6.1542586 4.1782775,5.8071614 4.5085729,5.5388124 4.8896052,5.3509455 5.2454911,5.1755439 5.6350787,5.0854965 6.055437,5.0739407 c 0.3961998,0.01147 0.7544708,0.095962 1.071889,0.2601435 0.3412716,0.1763333 0.6605114,0.4121893 0.956269,0.7081679 l 0.073466,-0.089123 c 0.033483,0.031467 0.069449,0.056176 0.1023716,0.089123 L 9.316869,4.7620097 C 8.9642143,4.3863197 8.5151317,4.0566061 7.9691798,3.7720192 7.4232279,3.4874823 6.7978353,3.3456732 6.0927726,3.3456732 c -0.031362,0 -0.061547,0.00432 -0.092736,0.00481 -0.02823,-4.631e-4 -0.054609,-0.00481 -0.083102,-0.00481 z M 37.680967,3.4950145 V 14.663117 h 3.12052 c 0.838866,0 1.587691,-0.119843 2.248557,-0.358902 0.660819,-0.239058 1.224329,-0.594671 1.68973,-1.06707 0.465401,-0.472578 0.822398,-1.062178 1.06948,-1.768011 0.247082,-0.70592 0.369741,-1.5190115 0.369741,-2.441254 0,-1.8444043 -0.482353,-3.2280523 -1.447652,-4.150251 C 43.765957,3.9554297 42.421681,3.4950145 40.697911,3.4950145 Z m -4.507954,0.069853 v 9.0002415 c 0,0.1821 0.0087,0.353776 0.0265,0.516673 4.1e-5,3.78e-4 -4.2e-5,8.02e-4 0,0.0012 0.03552,0.325645 0.106586,0.612316 0.213173,0.861124 0.0533,0.124404 0.115618,0.239186 0.186677,0.344448 0.213285,0.31578 0.54499,0.513398 0.994809,0.59255 0.149981,0.02632 0.312696,0.03974 0.488974,0.03974 0.432217,0 0.780207,-0.05725 1.041779,-0.17102 l -0.25653,-1.468125 c -0.07956,0.02282 -0.139641,0.03372 -0.179451,0.03372 h -0.127663 c -0.102461,0 -0.199452,-0.04781 -0.290253,-0.144524 -0.09096,-0.09668 -0.136095,-0.264516 -0.136095,-0.503425 V 3.5648677 Z m 14.684873,0.026497 V 14.672753 h 1.978778 v -4.338134 h 1.706592 l 2.405124,4.338133 h 2.218448 l -2.661655,-4.625977 c 0.671029,-0.2258699 1.208869,-0.5992586 1.61265,-1.1188573 0.40379,-0.5196068 0.604593,-1.2026012 0.604593,-2.0498342 0,-0.6212123 -0.105198,-1.1404583 -0.315545,-1.5584514 C 55.196333,4.9017888 54.909684,4.5657245 54.545748,4.311576 54.181811,4.0574195 53.749035,3.8740947 53.248642,3.76118 52.748201,3.6482245 52.208764,3.5913639 51.628765,3.5913639 Z m 12.383323,0 -3.633582,11.0813885 h 2.012501 l 0.870759,-2.998876 h 3.752815 l 0.870758,2.998876 h 2.08115 L 62.560824,3.5913639 Z m 5.064373,0 2.217243,11.0813875 h 2.40633 l 1.347689,-5.8291402 c 0.09098,-0.42924 0.178486,-0.8554257 0.263757,-1.2790388 0.08537,-0.42347 0.168535,-0.8498925 0.2481,-1.2790381 h 0.06744 c 0.06818,0.4291456 0.144764,0.8555687 0.230035,1.2790381 0.08536,0.4236131 0.173889,0.8497988 0.264961,1.2790388 l 1.381411,5.8291402 h 2.456914 L 78.322403,3.5913639 h -1.893268 l -0.973131,5.5918794 c -0.09098,0.5873153 -0.178486,1.1746277 -0.263756,1.7619897 -0.08527,0.587403 -0.174024,1.180243 -0.264962,1.778852 h -0.06865 C 74.733521,12.125476 74.609203,11.529794 74.484078,10.936803 74.358963,10.343728 74.233439,9.7593444 74.108316,9.1832433 L 72.743765,3.5913639 h -1.723452 l -1.36455,5.5918794 c -0.125116,0.5873153 -0.247882,1.1772967 -0.367333,1.7704207 -0.119409,0.592934 -0.241003,1.183106 -0.366128,1.770421 h -0.06865 C 68.762712,12.13677 68.671252,11.549552 68.58026,10.962095 68.48932,10.374787 68.399017,9.7818529 68.308073,9.1832433 L 67.334944,3.5913639 Z M 39.680219,5.0992333 h 0.87919 c 1.137766,0 2.01702,0.3132537 2.637568,0.9394066 0.620693,0.626183 0.930978,1.6230965 0.930978,2.9892407 0,1.3775804 -0.307716,2.3936124 -0.922547,3.0482554 -0.614822,0.654643 -1.496733,0.98156 -2.645999,0.98156 h -0.87919 z m 21.652149,0.016859 h 0.06865 c 0.159256,0.6099662 0.321595,1.2261456 0.486565,1.8475004 0.164835,0.6212592 0.338271,1.2252662 0.520287,1.8125734 l 0.392625,1.3549139 h -2.849538 l 0.392625,-1.3549139 c 0.182017,-0.5873072 0.352601,-1.1885578 0.511857,-1.8041428 0.159256,-0.6155935 0.317816,-1.2346631 0.47693,-1.855931 z m -11.495704,0.050583 h 1.587359 c 0.762013,0 1.34501,0.1248713 1.748744,0.3733536 0.403791,0.248521 0.605798,0.6941894 0.605798,1.3380527 0,0.632514 -0.202007,1.1072389 -0.605798,1.4235628 -0.403734,0.316332 -0.986731,0.4745208 -1.748744,0.4745208 H 49.836664 Z M 14.00066,6.1277598 c -0.523191,0 -1.024078,0.099571 -1.501848,0.2986833 -0.477678,0.1992537 -0.90096,0.4867344 -1.270609,0.8623276 -0.3696,0.375587 -0.663132,0.8362557 -0.87919,1.3826139 -0.216063,0.5463521 -0.323975,1.1676144 -0.323975,1.8619534 0,0.694246 0.107912,1.314346 0.323975,1.860748 0.216058,0.546352 0.50959,1.007021 0.87919,1.382614 0.369649,0.375593 0.792931,0.660322 1.270609,0.853897 0.47777,0.193408 0.978657,0.290252 1.501848,0.290252 0.02955,0 0.0585,-0.003 0.08792,-0.0036 0.0295,6.17e-4 0.05827,0.0036 0.08792,0.0036 0.523056,0 1.02573,-0.09685 1.509075,-0.290252 0.483487,-0.193577 0.907875,-0.478307 1.271814,-0.853897 0.363933,-0.375591 0.656076,-0.836263 0.877985,-1.382614 0.22173,-0.546401 0.332406,-1.166502 0.332406,-1.860748 0,-0.6943396 -0.110676,-1.3156019 -0.332406,-1.8619534 C 17.613463,8.125027 17.32132,7.6643614 16.957387,7.2887707 16.593448,6.91318 16.16906,6.6256992 15.685573,6.4264431 15.202228,6.2273293 14.699554,6.1277598 14.176498,6.1277598 c -0.02966,0 -0.0584,0.00419 -0.08792,0.00481 -0.02943,-6.166e-4 -0.05836,-0.00481 -0.08792,-0.00481 z m 9.488021,0 c -0.443635,0 -0.876362,0.1457248 -1.297106,0.4359817 -0.105444,0.07272 -0.205919,0.1532877 -0.303501,0.2420778 -0.09734,0.088574 -0.191121,0.184468 -0.280618,0.2890483 -0.08957,0.1045698 -0.174779,0.2166459 -0.256531,0.337223 -1.85e-4,2.725e-4 1.85e-4,9.249e-4 0,0.00123 -0.08155,0.1203385 -0.159875,0.2491217 -0.233647,0.3853977 h -0.06865 L 20.912535,6.3325318 h -1.621081 v 8.3836042 h 1.961918 V 9.5939595 c 0.261571,-0.6373553 0.57427,-1.0843599 0.938203,-1.3404613 0.18197,-0.1280457 0.360094,-0.2238094 0.533535,-0.287844 0.173415,-0.064037 0.342092,-0.096349 0.50704,-0.096349 0.18192,0 0.336148,0.012172 0.461273,0.034926 0.125068,0.022772 0.261609,0.056891 0.409486,0.1023709 L 24.443745,6.2988086 C 24.204932,6.1849035 23.886662,6.1277882 23.488681,6.1277882 Z m 4.824702,0 c -0.24453,0 -0.48615,0.025917 -0.72503,0.07708 -0.238879,0.051162 -0.475018,0.1275679 -0.708169,0.2300343 -0.116587,0.051206 -0.2298,0.1079243 -0.339632,0.1698161 -0.329497,0.1856747 -0.628589,0.4192473 -0.897255,0.7009422 -0.08957,0.093896 -0.174682,0.1928277 -0.255326,0.2974783 -1.88e-4,2.436e-4 1.88e-4,9.866e-4 0,0.00123 -0.24167,0.3137741 -0.443886,0.6756706 -0.605798,1.085135 -0.21606,0.5463521 -0.323975,1.1609381 -0.323975,1.8438873 0,0.173562 0.0061,0.341877 0.01927,0.505834 0.01315,0.163964 0.03271,0.322565 0.05901,0.47693 0.05257,0.309145 0.13189,0.598882 0.237261,0.869554 0.05259,0.135137 0.110531,0.264178 0.173429,0.38901 0.06299,0.125174 0.130206,0.245297 0.203538,0.360106 0.146288,0.229028 0.313359,0.437271 0.501018,0.625067 0.375316,0.375735 0.813581,0.663172 1.313967,0.862327 0.25022,0.0996 0.510209,0.174243 0.780431,0.224013 0.270221,0.04977 0.550674,0.07467 0.840649,0.07467 0.266903,0 0.528485,-0.02118 0.784044,-0.06383 0.127951,-0.02134 0.255476,-0.04868 0.380581,-0.08069 0.125117,-0.03206 0.24868,-0.0693 0.370946,-0.112007 0.489147,-0.170617 0.932711,-0.387373 1.330828,-0.649154 l -0.666016,-1.228455 c -0.306997,0.193581 -0.616967,0.343529 -0.929773,0.451638 -0.312846,0.108078 -0.651204,0.162589 -1.015284,0.162589 -0.340722,0 -0.651261,-0.05107 -0.930977,-0.15175 -3.46e-4,-1.25e-4 -8.63e-4,1.25e-4 -0.0012,0 -0.279994,-0.100938 -0.528952,-0.252003 -0.747913,-0.454047 -0.109493,-0.100986 -0.208442,-0.213303 -0.296275,-0.336018 -0.175589,-0.245392 -0.307407,-0.533705 -0.396238,-0.86594 -0.04445,-0.166137 -0.07843,-0.343298 -0.101166,-0.531126 h 5.323311 c 0.02274,-0.102393 0.04313,-0.238824 0.06022,-0.409486 0.01709,-0.170759 0.02529,-0.353338 0.02529,-0.546783 0,-0.2902844 -0.01849,-0.5685366 -0.0554,-0.8358306 C 31.684763,9.0025196 31.629464,8.7463522 31.555522,8.5015975 31.481583,8.2568916 31.389377,8.0292763 31.279721,7.8187209 31.170065,7.6081655 31.042959,7.4146693 30.897936,7.2382158 30.752913,7.0618066 30.590725,6.9050817 30.410167,6.7685122 30.229756,6.6317515 30.031269,6.5147639 29.815208,6.4180414 29.707144,6.3696416 29.594615,6.3278682 29.477985,6.2915822 29.244724,6.2190109 28.995036,6.1700284 28.727663,6.1458538 28.593976,6.1337677 28.455536,6.1277864 28.31336,6.1277864 Z m 0.05178,1.5199124 c 0.145023,0 0.279693,0.011808 0.405873,0.034926 0.37889,0.069328 0.672357,0.2426076 0.881598,0.5202869 0.06963,0.092478 0.130828,0.1936781 0.183064,0.3035004 0.156707,0.3294675 0.234852,0.7370469 0.234852,1.2236377 h -3.719092 c 0.02268,-0.1703267 0.05475,-0.3307514 0.09515,-0.4805428 1.04e-4,-3.83e-4 -1.03e-4,-8.017e-4 0,-0.00123 0.04044,-0.1497193 0.09,-0.2887246 0.148137,-0.4179154 1.5e-4,-3.311e-4 -1.49e-4,-8.633e-4 0,-0.00123 0.05818,-0.1291378 0.125281,-0.2478828 0.20113,-0.3564929 1.78e-4,-2.54e-4 -1.77e-4,-9.249e-4 0,-0.00123 0.07609,-0.1088363 0.161497,-0.2068667 0.255327,-0.2950704 0.09359,-0.087982 0.191258,-0.1652443 0.292661,-0.2312386 0.203307,-0.1323203 0.422998,-0.220847 0.657586,-0.2649612 0.11732,-0.022002 0.238609,-0.032515 0.363719,-0.032515 z m -14.276592,0.095145 c 0.570644,0.024271 1.027363,0.2693856 1.362142,0.7503212 0.352654,0.5065174 0.528718,1.1864909 0.528718,2.0401996 0,0.842183 -0.176064,1.51561 -0.528718,2.022133 -0.334779,0.48093 -0.791498,0.726048 -1.362142,0.750321 -0.570487,-0.02426 -1.024225,-0.269387 -1.35371,-0.750321 -0.346852,-0.506523 -0.520288,-1.179948 -0.520288,-2.022133 0,-0.8537112 0.173436,-1.5336828 0.520288,-2.0401996 0.329485,-0.4809338 0.783223,-0.7260646 1.35371,-0.7503212 z M 4.1669807,16.991158 c -0.3726646,0 -0.7176052,0.06435 -1.0357529,0.193903 -0.31816,0.129593 -0.5921318,0.316145 -0.8213851,0.558826 -0.2294013,0.242538 -0.4080472,0.53667 -0.5371402,0.884007 -0.1289203,0.347372 -0.1939076,0.739905 -0.1939076,1.175463 0,0.441143 0.062965,0.83619 0.1890855,1.186302 0.1261578,0.350219 0.301554,0.645412 0.5251096,0.88521 0.2236234,0.239906 0.4908985,0.423614 0.8033053,0.550396 0.3124192,0.126818 0.6559107,0.19029 1.0285321,0.19029 0.3783253,0 0.716045,-0.05965 1.014078,-0.178246 0.2981483,-0.11853 0.5391264,-0.268405 0.7226252,-0.450434 V 19.703394 H 4.0128214 v 0.57087 h 1.1947342 v 1.415132 c -0.1147191,0.09925 -0.2625764,0.176975 -0.4432078,0.234852 -0.1805575,0.05788 -0.3702351,0.08672 -0.5708702,0.08672 -0.3038109,0 -0.5723933,-0.05177 -0.8045202,-0.156568 C 3.1567998,21.749596 2.9625529,21.600559 2.8048357,21.407574 2.6472726,21.214518 2.5265413,20.981995 2.4435296,20.709041 2.3602959,20.436052 2.3182721,20.128318 2.3182721,19.786495 c 0,-0.33638 0.044891,-0.639083 0.1336869,-0.909297 0.088901,-0.270143 0.2127336,-0.50099 0.3733552,-0.691307 0.1604366,-0.19021 0.3560277,-0.336366 0.5853242,-0.438391 0.2293643,-0.102023 0.4865328,-0.152954 0.7732011,-0.152954 0.2866376,0 0.5251034,0.05006 0.7141952,0.149341 0.1892335,0.09925 0.3553062,0.220323 0.4986096,0.36372 l 0.3962373,-0.446821 c -0.080256,-0.08267 -0.1745058,-0.16459 -0.2806179,-0.244487 -0.106003,-0.08 -0.2254511,-0.15095 -0.3601068,-0.214377 C 5.0174279,17.138531 4.8675111,17.0876 4.704127,17.048967 4.540712,17.010372 4.3619921,16.991158 4.1669807,16.991158 Z m 26.7165233,0 c -0.361259,0 -0.693408,0.06435 -0.997217,0.193903 -0.30381,0.129593 -0.567644,0.316145 -0.791271,0.558826 -0.223554,0.242538 -0.398875,0.53667 -0.525105,0.884007 -0.126049,0.347372 -0.189086,0.739905 -0.189086,1.175463 0,0.441143 0.06211,0.83619 0.185473,1.186302 0.123179,0.350219 0.294894,0.645412 0.51547,0.88521 0.220758,0.239906 0.479878,0.423614 0.778022,0.550396 0.298072,0.126818 0.624908,0.19029 0.980357,0.19029 0.366816,0 0.69103,-0.06927 0.971926,-0.207151 0.280931,-0.137883 0.532717,-0.331214 0.756343,-0.579301 l -0.395033,-0.42996 c -0.183426,0.192985 -0.37891,0.342897 -0.585323,0.450434 -0.206304,0.107538 -0.44626,0.161386 -0.721417,0.161386 -0.26942,0 -0.512528,-0.05177 -0.727439,-0.156568 -0.214911,-0.104799 -0.396652,-0.253836 -0.54558,-0.446821 -0.149144,-0.193056 -0.26501,-0.425579 -0.348062,-0.698533 -0.08312,-0.272989 -0.125255,-0.580723 -0.125255,-0.922546 0,-0.33638 0.04213,-0.639083 0.125255,-0.909297 0.08305,-0.270143 0.20172,-0.50099 0.356493,-0.691307 0.154738,-0.19021 0.340939,-0.336366 0.558827,-0.438391 0.217889,-0.102023 0.461633,-0.152954 0.731053,-0.152954 0.240767,0 0.456305,0.04721 0.645541,0.140911 0.189164,0.09373 0.357931,0.21769 0.50704,0.37215 l 0.386602,-0.446821 c -0.166285,-0.176407 -0.379839,-0.332296 -0.640724,-0.467295 -0.260777,-0.135107 -0.562989,-0.202333 -0.90689,-0.202333 z m 4.1623,0 c -0.258017,0 -0.495558,0.03558 -0.710578,0.107188 -0.214911,0.07172 -0.401185,0.172703 -0.558827,0.302296 -0.157752,0.129558 -0.280952,0.282458 -0.369742,0.458865 -0.08893,0.176479 -0.13248,0.366822 -0.13248,0.57087 0,0.198498 0.03359,0.373492 0.102371,0.525105 0.06874,0.151612 0.158462,0.282311 0.26737,0.392624 0.108799,0.110312 0.232217,0.204592 0.369741,0.281822 0.137634,0.07712 0.271569,0.142305 0.403464,0.197516 l 0.808132,0.339631 c 0.131895,0.06065 0.255095,0.118327 0.369741,0.173429 0.114646,0.0551 0.214355,0.117736 0.297479,0.186677 0.08313,0.06894 0.148855,0.15159 0.197517,0.2481 0.04877,0.09647 0.07347,0.213793 0.07347,0.351675 0,0.264665 -0.103109,0.478048 -0.309523,0.640724 -0.206304,0.162677 -0.495687,0.243283 -0.86835,0.243283 -0.292297,0 -0.575587,-0.06143 -0.847876,-0.185473 -0.272288,-0.124044 -0.508734,-0.288538 -0.709373,-0.492586 l -0.42996,0.480542 c 0.246542,0.248195 0.539785,0.443131 0.877985,0.586527 0.338164,0.143324 0.704049,0.215582 1.099589,0.215582 0.298072,0 0.564672,-0.04054 0.799701,-0.120437 0.235139,-0.08 0.436008,-0.190652 0.602185,-0.331201 0.166249,-0.140657 0.294091,-0.303947 0.382989,-0.491382 0.08886,-0.187543 0.133685,-0.389552 0.133685,-0.604592 0,-0.198499 -0.03,-0.373492 -0.09033,-0.525104 -0.06014,-0.151686 -0.142557,-0.283258 -0.245692,-0.396238 -0.10317,-0.113087 -0.226442,-0.213237 -0.369741,-0.298683 -0.143262,-0.08545 -0.294849,-0.160219 -0.455251,-0.226421 l -0.799701,-0.331201 c -0.114719,-0.04415 -0.227148,-0.09209 -0.336019,-0.144525 -0.109018,-0.05233 -0.209434,-0.112918 -0.301093,-0.181859 -0.09184,-0.06894 -0.164759,-0.149913 -0.219195,-0.240873 -0.0544,-0.091 -0.0819,-0.202483 -0.0819,-0.334815 0,-0.248123 0.09702,-0.442293 0.289048,-0.582914 0.192033,-0.140657 0.445877,-0.210764 0.761162,-0.210764 0.263645,0 0.5002,0.04513 0.709373,0.136094 0.209283,0.09096 0.398848,0.217065 0.570871,0.376967 l 0.387807,-0.446821 c -0.200639,-0.198498 -0.444419,-0.360112 -0.731052,-0.484156 -0.28656,-0.124043 -0.598727,-0.185472 -0.936999,-0.185472 z m 6.310894,0 c -0.258016,0 -0.49439,0.03558 -0.709373,0.107188 -0.214947,0.07172 -0.401258,0.172703 -0.558827,0.302296 -0.157716,0.129558 -0.28088,0.282458 -0.369742,0.458865 -0.0889,0.176479 -0.133685,0.366822 -0.133685,0.57087 0,0.198498 0.03472,0.373492 0.103576,0.525105 0.06878,0.151612 0.157148,0.282311 0.266166,0.392624 0.108798,0.110312 0.232216,0.204592 0.369741,0.281822 0.137633,0.07712 0.272808,0.142305 0.404668,0.197516 l 0.808131,0.339631 c 0.131896,0.06065 0.255096,0.118327 0.369742,0.173429 0.114537,0.0551 0.213041,0.117736 0.296274,0.186677 0.08312,0.06894 0.148855,0.15159 0.197517,0.2481 0.04881,0.09647 0.07347,0.213793 0.07347,0.351675 0,0.264665 -0.103109,0.478048 -0.309522,0.640724 -0.206377,0.162677 -0.495688,0.243283 -0.86835,0.243283 -0.292334,0 -0.574384,-0.06143 -0.846672,-0.185473 -0.272288,-0.124044 -0.508734,-0.288538 -0.709374,-0.492586 l -0.429959,0.480542 c 0.246541,0.248195 0.538508,0.443131 0.876781,0.586527 0.338163,0.143324 0.705143,0.215582 1.100793,0.215582 0.298035,0 0.564672,-0.04054 0.799701,-0.120437 0.235139,-0.08 0.4359,-0.190652 0.602185,-0.331201 0.166249,-0.140657 0.292814,-0.303947 0.381785,-0.491382 0.08879,-0.187543 0.133685,-0.389552 0.133685,-0.604592 0,-0.198499 -0.03008,-0.373492 -0.09033,-0.525104 -0.06013,-0.151686 -0.141353,-0.283258 -0.244487,-0.396238 -0.103243,-0.113087 -0.226371,-0.213237 -0.369741,-0.298683 -0.143226,-0.08545 -0.295945,-0.160219 -0.456456,-0.226421 l -0.799701,-0.331201 c -0.114646,-0.04415 -0.225834,-0.09209 -0.334815,-0.144525 -0.108908,-0.05233 -0.209434,-0.112918 -0.301092,-0.181859 -0.09173,-0.06894 -0.164796,-0.149913 -0.219195,-0.240873 -0.0544,-0.091 -0.0819,-0.202483 -0.0819,-0.334815 0,-0.248123 0.09585,-0.442293 0.287845,-0.582914 0.19196,-0.140657 0.44584,-0.210764 0.761161,-0.210764 0.263646,0 0.500128,0.04513 0.709374,0.136094 0.209282,0.09096 0.400088,0.217065 0.572075,0.376967 l 0.386602,-0.446821 c -0.200639,-0.198498 -0.444382,-0.360112 -0.731051,-0.484156 -0.286561,-0.124043 -0.598836,-0.185472 -0.937,-0.185472 z m -34.1450697,0.09876 v 5.425676 h 0.7129866 v -2.290707 h 1.0237142 l 1.3585279,2.290707 h 0.808132 l -1.4356084,-2.36538 c 0.3898764,-0.09373 0.6992774,-0.266686 0.9285694,-0.520286 0.229364,-0.253746 0.343244,-0.593017 0.343244,-1.017691 1e-6,-0.281171 -0.04822,-0.518797 -0.145728,-0.711782 -0.0975,-0.192984 -0.233498,-0.349531 -0.408281,-0.470908 -0.174783,-0.121304 -0.383841,-0.208912 -0.6274763,-0.261348 -0.2436364,-0.05233 -0.5094193,-0.07828 -0.7960882,-0.07828 z m 6.0182327,0 -1.908925,5.425676 h 0.731052 l 0.541966,-1.653596 h 2.054654 l 0.533536,1.653596 h 0.764774 l -1.908925,-5.425676 z m 3.259023,0 v 5.425676 h 0.714191 v -2.149796 h 0.928569 c 0.309547,0 0.591524,-0.03467 0.846671,-0.103576 0.255039,-0.06894 0.474087,-0.172844 0.657586,-0.310726 0.183317,-0.137883 0.325972,-0.310798 0.426346,-0.520287 0.100265,-0.209562 0.150547,-0.457472 0.150547,-0.744299 0,-0.297748 -0.05212,-0.548682 -0.155364,-0.75273 -0.103171,-0.204049 -0.246643,-0.368543 -0.42996,-0.492587 -0.183499,-0.124043 -0.40513,-0.213435 -0.666016,-0.268574 -0.260776,-0.0551 -0.549416,-0.0831 -0.864737,-0.0831 z m 4.609121,0 v 5.425676 h 0.714191 v -2.555668 h 2.621911 v 2.555668 h 0.722622 v -5.425676 h -0.722622 v 2.27505 h -2.621911 v -2.27505 z m 5.606338,0 v 5.425676 h 0.714191 v -5.425676 z m 17.326055,0 v 3.184348 c 0,0.43563 0.05219,0.803045 0.155363,1.100792 0.103243,0.297784 0.244513,0.539021 0.425142,0.723825 0.180522,0.184696 0.396241,0.316232 0.645542,0.396237 0.249374,0.0799 0.516682,0.120437 0.803314,0.120437 0.286742,0 0.553197,-0.04054 0.799701,-0.120437 0.24636,-0.08 0.460168,-0.211541 0.640725,-0.396237 0.18063,-0.184804 0.323176,-0.426041 0.426347,-0.723825 0.103243,-0.297747 0.154159,-0.665162 0.154159,-1.100792 v -3.184348 h -0.687695 v 3.201209 c 0,0.325317 -0.03483,0.598345 -0.103576,0.81897 -0.06878,0.220518 -0.162606,0.396386 -0.283026,0.528718 -0.120275,0.132332 -0.261018,0.227558 -0.421529,0.285435 -0.160512,0.05788 -0.335942,0.08672 -0.525106,0.08672 -0.183426,0 -0.355031,-0.02883 -0.515469,-0.08672 -0.160512,-0.05788 -0.299198,-0.153103 -0.416712,-0.285435 -0.117515,-0.132332 -0.210633,-0.3082 -0.279414,-0.528718 -0.06878,-0.220625 -0.103575,-0.493653 -0.103575,-0.81897 v -3.201209 z m 5.31488,0 v 5.425676 h 0.712987 v -5.425676 z m 1.470535,0 v 0.5793 h 1.701774 v 4.846376 h 0.722622 v -4.846376 h 1.702977 v -0.5793 z m 5.141452,0 v 5.425676 h 3.336103 v -0.586527 h -2.621912 v -1.969141 h 2.140164 v -0.586527 h -2.140164 v -1.704181 h 2.536401 v -0.5793 z M 7.9246149,17.643925 h 0.9466346 c 0.4414424,0 0.7790493,0.07226 1.0140786,0.215582 0.2350289,0.143395 0.3528799,0.39433 0.3528799,0.75273 0,0.352958 -0.117851,0.616361 -0.3528799,0.790065 -0.2350293,0.173632 -0.5726362,0.260143 -1.0140786,0.260143 H 7.9246149 Z m 9.2784601,0 h 0.808131 c 0.492938,0 0.863536,0.07601 1.112838,0.227625 0.24941,0.151613 0.374559,0.423874 0.374559,0.815358 0,0.385969 -0.118596,0.667524 -0.356494,0.84667 -0.237898,0.179254 -0.60293,0.269779 -1.095976,0.269779 h -0.843058 z m -3.603473,0.0084 h 0.03493 c 0.09173,0.314289 0.182828,0.622022 0.274596,0.922545 0.09173,0.30045 0.189527,0.602387 0.292662,0.905684 l 0.266165,0.827401 h -1.693343 l 0.266165,-0.827401 c 0.103171,-0.303297 0.200931,-0.605234 0.292662,-0.905684 0.09166,-0.300523 0.180173,-0.608256 0.266166,-0.922545 z m 75.862011,2.931434 0.44923,1.987207 h 2.435234 l 0.455252,-1.987207 z"
     id="path11" /></svg>
