<?xml version="1.0" encoding="UTF-8" standalone="no"?>
<svg
   width="31.265451"
   height="28.927299"
   viewBox="0 0 31.265451 28.927299"
   fill="none"
   version="1.1"
   id="svg37"
   sodipodi:docname="gitlab.svg"
   inkscape:version="1.1.1 (eb90963e84, 2021-10-02)"
   xmlns:inkscape="http://www.inkscape.org/namespaces/inkscape"
   xmlns:sodipodi="http://sodipodi.sourceforge.net/DTD/sodipodi-0.dtd"
   xmlns="http://www.w3.org/2000/svg"
   xmlns:svg="http://www.w3.org/2000/svg">
  <sodipodi:namedview
     id="namedview39"
     pagecolor="#ffffff"
     bordercolor="#666666"
     borderopacity="1.0"
     inkscape:pageshadow="2"
     inkscape:pageopacity="0.0"
     inkscape:pagecheckerboard="0"
     showgrid="false"
     fit-margin-top="0"
     fit-margin-left="0"
     fit-margin-right="0"
     fit-margin-bottom="0"
     inkscape:zoom="1.4173729"
     inkscape:cx="-10.935725"
     inkscape:cy="-2.4693572"
     inkscape:window-width="1848"
     inkscape:window-height="1016"
     inkscape:window-x="72"
     inkscape:window-y="27"
     inkscape:window-maximized="1"
     inkscape:current-layer="svg37" />
  <path
     d="m 15.631425,28.9273 5.7598,-17.7974 H 9.8798253 Z"
     fill="#e24329"
     id="path16" />
  <path
     d="M 1.8124253,11.1299 0.05842529,16.537 c -0.1587,0.491 0.0127,1.0329 0.4316,1.339 L 15.631625,28.9272 Z"
     fill="#fca326"
     id="path18" />
  <path
     d="m 1.8125253,11.1298 h 8.0676 l -3.4721,-10.7185 c -0.1777,-0.5484 -0.9521,-0.5484 -1.1362,0 z"
     fill="#e24329"
     id="path20" />
  <path
     d="m 29.459325,11.1299 1.7477,5.4071 c 0.1587,0.491 -0.0127,1.0329 -0.4316,1.339 l -15.1436,11.0513 z"
     fill="#fca326"
     id="path22" />
  <path
     d="m 29.459225,11.1298 h -8.0676 l 3.4657,-10.7185 c 0.1777,-0.5484 0.9521,-0.5484 1.1362,0 z"
     fill="#e24329"
     id="path24" />
  <path
     d="m 15.631825,28.9273 5.7599,-17.7974 h 8.0676 z"
     fill="#fc6d26"
     id="path26" />
  <path
     d="M 15.631625,28.9273 1.8125253,11.1299 h 8.0676 z"
     fill="#fc6d26"
     id="path28" />
  <defs
     id="defs35">
    <clipPath
       id="clip0">
      <rect
         width="117.236"
         height="52"
         fill="#ffffff"
         id="rect32"
         x="0"
         y="0" />
    </clipPath>
  </defs>
</svg>
